<?xml version="1.0" encoding="UTF-8" standalone="no"?>
<!DOCTYPE svg PUBLIC "-//W3C//DTD SVG 1.1//EN" "http://www.w3.org/Graphics/SVG/1.1/DTD/svg11.dtd">
<svg width="100%" height="100%" viewBox="0 0 2349 420" version="1.1" xmlns="http://www.w3.org/2000/svg" xmlns:xlink="http://www.w3.org/1999/xlink" xml:space="preserve" xmlns:serif="http://www.serif.com/" style="fill-rule:evenodd;clip-rule:evenodd;stroke-linejoin:round;stroke-miterlimit:2;">
    <g transform="matrix(1,0,0,1,-534.963,-883.2)">
        <g>
            <g transform="matrix(1,0,0,1,324.48,-42.1215)">
                <g transform="matrix(266.667,0,0,266.667,916.342,1220.59)">
                    <path d="M0.162,-0.699L0.04,-0.699L0.04,-0L0.154,-0L0.162,-0.068C0.2,-0.009 0.261,0.011 0.321,0.011C0.466,0.011 0.575,-0.085 0.575,-0.247C0.575,-0.417 0.468,-0.505 0.324,-0.505C0.272,-0.505 0.191,-0.477 0.162,-0.426L0.162,-0.699ZM0.313,-0.391C0.391,-0.391 0.453,-0.336 0.453,-0.247C0.453,-0.161 0.391,-0.102 0.313,-0.102C0.236,-0.102 0.17,-0.158 0.17,-0.247C0.17,-0.333 0.236,-0.391 0.313,-0.391Z" style="fill:rgb(78,184,72);fill-rule:nonzero;"/>
                </g>
                <g transform="matrix(266.667,0,0,266.667,1069.68,1220.59)">
                    <path d="M0.165,-0.493L0.043,-0.493L0.043,-0.234C0.043,-0.081 0.129,0.008 0.247,0.008C0.316,0.008 0.363,-0.016 0.414,-0.066L0.422,0.001L0.531,0.001L0.531,-0.493L0.41,-0.493L0.41,-0.241C0.41,-0.166 0.359,-0.103 0.284,-0.103C0.206,-0.103 0.165,-0.16 0.165,-0.235L0.165,-0.493Z" style="fill:rgb(78,184,72);fill-rule:nonzero;"/>
                </g>
                <g transform="matrix(266.667,0,0,266.667,1224.08,1220.59)">
                    <path d="M0.537,-0.493L0.402,-0.493L0.312,-0.277L0.261,-0.141L0.214,-0.28L0.139,-0.493L-0.003,-0.493L0.194,-0.008L0.102,0.206L0.236,0.206L0.537,-0.493Z" style="fill:rgb(78,184,72);fill-rule:nonzero;"/>
                </g>
                <g transform="matrix(266.667,0,0,266.667,1368.34,1220.59)">
                    <path d="M0.162,-0.699L0.04,-0.699L0.04,-0L0.154,-0L0.162,-0.068C0.2,-0.009 0.261,0.011 0.321,0.011C0.466,0.011 0.575,-0.085 0.575,-0.247C0.575,-0.417 0.468,-0.505 0.324,-0.505C0.272,-0.505 0.191,-0.477 0.162,-0.426L0.162,-0.699ZM0.313,-0.391C0.391,-0.391 0.453,-0.336 0.453,-0.247C0.453,-0.161 0.391,-0.102 0.313,-0.102C0.236,-0.102 0.17,-0.158 0.17,-0.247C0.17,-0.333 0.236,-0.391 0.313,-0.391Z" style="fill:rgb(78,184,72);fill-rule:nonzero;"/>
                </g>
                <g transform="matrix(266.667,0,0,266.667,1521.68,1220.59)">
                    <path d="M0.165,-0.493L0.043,-0.493L0.043,-0.234C0.043,-0.081 0.129,0.008 0.247,0.008C0.316,0.008 0.363,-0.016 0.414,-0.066L0.422,0.001L0.531,0.001L0.531,-0.493L0.41,-0.493L0.41,-0.241C0.41,-0.166 0.359,-0.103 0.284,-0.103C0.206,-0.103 0.165,-0.16 0.165,-0.235L0.165,-0.493Z" style="fill:rgb(78,184,72);fill-rule:nonzero;"/>
                </g>
                <g transform="matrix(266.667,0,0,266.667,1684.08,1220.59)">
                    <path d="M0.029,-0.632C0.029,-0.68 0.065,-0.703 0.101,-0.703C0.137,-0.703 0.173,-0.68 0.173,-0.632C0.173,-0.585 0.137,-0.561 0.101,-0.561C0.065,-0.561 0.029,-0.585 0.029,-0.632ZM0.04,-0.495L0.162,-0.495L0.162,-0L0.04,-0L0.04,-0.495Z" style="fill:rgb(78,184,72);fill-rule:nonzero;"/>
                </g>
                <g transform="matrix(266.667,0,0,266.667,1748.61,1220.59)">
                    <rect x="0.04" y="-0.699" width="0.121" height="0.699" style="fill:rgb(78,184,72);fill-rule:nonzero;"/>
                </g>
                <g transform="matrix(266.667,0,0,266.667,1801.41,1220.59)">
                    <path d="M0.552,-0.699L0.43,-0.699L0.43,-0.426C0.401,-0.477 0.32,-0.505 0.268,-0.505C0.124,-0.505 0.017,-0.417 0.017,-0.247C0.017,-0.085 0.126,0.011 0.271,0.011C0.331,0.011 0.392,-0.009 0.43,-0.068L0.438,-0L0.552,-0L0.552,-0.699ZM0.279,-0.391C0.356,-0.391 0.422,-0.333 0.422,-0.247C0.422,-0.158 0.356,-0.102 0.279,-0.102C0.201,-0.102 0.139,-0.161 0.139,-0.247C0.139,-0.336 0.201,-0.391 0.279,-0.391Z" style="fill:rgb(78,184,72);fill-rule:nonzero;"/>
                </g>
                <g transform="matrix(266.667,0,0,266.667,1966.21,1220.59)">
                    <path d="M0.162,-0.699L0.04,-0.699L0.04,-0L0.154,-0L0.162,-0.068C0.2,-0.009 0.261,0.011 0.321,0.011C0.466,0.011 0.575,-0.085 0.575,-0.247C0.575,-0.417 0.468,-0.505 0.324,-0.505C0.272,-0.505 0.191,-0.477 0.162,-0.426L0.162,-0.699ZM0.313,-0.391C0.391,-0.391 0.453,-0.336 0.453,-0.247C0.453,-0.161 0.391,-0.102 0.313,-0.102C0.236,-0.102 0.17,-0.158 0.17,-0.247C0.17,-0.333 0.236,-0.391 0.313,-0.391Z" style="fill:rgb(78,184,72);fill-rule:nonzero;"/>
                </g>
                <g transform="matrix(266.667,0,0,266.667,2127.54,1220.59)">
                    <path d="M0.272,-0.503C0.115,-0.503 0.017,-0.387 0.017,-0.246C0.017,-0.104 0.113,0.011 0.273,0.011C0.433,0.011 0.53,-0.104 0.53,-0.246C0.53,-0.387 0.429,-0.503 0.272,-0.503ZM0.273,-0.392C0.355,-0.392 0.407,-0.32 0.407,-0.246C0.407,-0.171 0.362,-0.101 0.273,-0.101C0.184,-0.101 0.139,-0.171 0.139,-0.246C0.139,-0.32 0.185,-0.392 0.273,-0.392Z" style="fill:rgb(78,184,72);fill-rule:nonzero;"/>
                </g>
                <g transform="matrix(266.667,0,0,266.667,2277.94,1220.59)">
                    <path d="M0.272,-0.503C0.115,-0.503 0.017,-0.387 0.017,-0.246C0.017,-0.104 0.113,0.011 0.273,0.011C0.433,0.011 0.53,-0.104 0.53,-0.246C0.53,-0.387 0.429,-0.503 0.272,-0.503ZM0.273,-0.392C0.355,-0.392 0.407,-0.32 0.407,-0.246C0.407,-0.171 0.362,-0.101 0.273,-0.101C0.184,-0.101 0.139,-0.171 0.139,-0.246C0.139,-0.32 0.185,-0.392 0.273,-0.392Z" style="fill:rgb(78,184,72);fill-rule:nonzero;"/>
                </g>
                <g transform="matrix(266.667,0,0,266.667,2425.68,1220.59)">
                    <path d="M0.159,-0.699L0.037,-0.699L0.037,-0L0.159,-0L0.159,-0.223L0.352,-0L0.499,-0L0.499,-0.009L0.27,-0.261L0.471,-0.486L0.471,-0.493L0.325,-0.493L0.159,-0.295L0.159,-0.699Z" style="fill:rgb(78,184,72);fill-rule:nonzero;"/>
                </g>
            </g>
            <path d="M998.47,910.8L826.27,910.8L826.27,883.2L998.47,883.2C1069.27,883.2 1136.47,918 1136.47,997.8C1136.47,1041 1110.07,1074.6 1068.07,1087.8C1120.87,1102.2 1150.87,1144.8 1150.87,1193.4C1150.87,1279.8 1070.47,1303.2 998.47,1303.2L826.27,1303.2L826.27,1272L998.47,1272C1051.27,1272 1119.07,1259.4 1119.07,1192.8C1118.47,1127.4 1059.07,1104 1002.67,1104L858.67,1104L858.67,1073.4L1002.67,1073.4C1053.07,1073.4 1105.87,1057.8 1105.87,997.8C1105.87,936.6 1050.67,910.8 998.47,910.8Z" style="fill:rgb(78,184,72);fill-rule:nonzero;"/>
            <g transform="matrix(1,0,0,1,-143.614,0)">
                <path d="M998.47,910.8L826.27,910.8L826.27,883.2L998.47,883.2C1069.27,883.2 1136.47,918 1136.47,997.8C1136.47,1041 1110.07,1074.6 1068.07,1087.8C1120.87,1102.2 1150.87,1144.8 1150.87,1193.4C1150.87,1279.8 1070.47,1303.2 998.47,1303.2L826.27,1303.2L826.27,1272L998.47,1272C1051.27,1272 1119.07,1259.4 1119.07,1192.8C1118.47,1127.4 1059.07,1104 1002.67,1104L858.67,1104L858.67,1073.4L1002.67,1073.4C1053.07,1073.4 1105.87,1057.8 1105.87,997.8C1105.87,936.6 1050.67,910.8 998.47,910.8Z" style="fill:rgb(78,184,72);fill-rule:nonzero;"/>
            </g>
            <g transform="matrix(1,0,0,1,-291.307,0)">
                <path d="M998.47,910.8L826.27,910.8L826.27,883.2L998.47,883.2C1069.27,883.2 1136.47,918 1136.47,997.8C1136.47,1041 1110.07,1074.6 1068.07,1087.8C1120.87,1102.2 1150.87,1144.8 1150.87,1193.4C1150.87,1279.8 1070.47,1303.2 998.47,1303.2L826.27,1303.2L826.27,1272L998.47,1272C1051.27,1272 1119.07,1259.4 1119.07,1192.8C1118.47,1127.4 1059.07,1104 1002.67,1104L858.67,1104L858.67,1073.4L1002.67,1073.4C1053.07,1073.4 1105.87,1057.8 1105.87,997.8C1105.87,936.6 1050.67,910.8 998.47,910.8Z" style="fill:rgb(78,184,72);fill-rule:nonzero;"/>
            </g>
        </g>
    </g>
</svg>
