<?xml version="1.0" encoding="UTF-8" standalone="no"?>
<!DOCTYPE svg PUBLIC "-//W3C//DTD SVG 1.1//EN" "http://www.w3.org/Graphics/SVG/1.1/DTD/svg11.dtd">
<svg width="100%" height="100%" viewBox="0 0 1569 205" version="1.1" xmlns="http://www.w3.org/2000/svg" xmlns:xlink="http://www.w3.org/1999/xlink" xml:space="preserve" xmlns:serif="http://www.serif.com/" style="fill-rule:evenodd;clip-rule:evenodd;stroke-linejoin:round;stroke-miterlimit:2;">
    <g transform="matrix(1,0,0,1,-851.9,-1097.8)">
        <g transform="matrix(1,0,0,1,-75.0424,37.4118)">
            <g transform="matrix(200,0,0,200,916.342,1220.59)">
                <path d="M0.249,0.031L0.249,-0.001C0.249,-0.006 0.248,-0.019 0.248,-0.022C0.313,0.032 0.362,0.049 0.445,0.049C0.533,0.049 0.601,0.023 0.653,-0.029C0.711,-0.09 0.742,-0.176 0.742,-0.283C0.742,-0.481 0.636,-0.597 0.454,-0.597C0.371,-0.597 0.307,-0.574 0.248,-0.522C0.249,-0.536 0.249,-0.545 0.249,-0.56L0.249,-0.644C0.249,-0.717 0.251,-0.753 0.256,-0.801L0.053,-0.801C0.059,-0.753 0.061,-0.717 0.061,-0.644L0.061,-0.126C0.061,-0.059 0.059,-0.017 0.053,0.031L0.249,0.031ZM0.548,-0.281C0.548,-0.175 0.49,-0.104 0.403,-0.104C0.317,-0.104 0.251,-0.179 0.251,-0.278C0.251,-0.375 0.316,-0.445 0.407,-0.445C0.495,-0.445 0.548,-0.383 0.548,-0.281Z" style="fill:rgb(5,57,255);fill-rule:nonzero;"/>
            </g>
            <g transform="matrix(200,0,0,200,1064.14,1220.59)">
                <path d="M0.475,-0.579C0.481,-0.527 0.483,-0.485 0.483,-0.429L0.483,-0.224C0.444,-0.16 0.388,-0.121 0.333,-0.121C0.304,-0.121 0.282,-0.131 0.268,-0.149C0.256,-0.165 0.252,-0.183 0.252,-0.224L0.252,-0.429C0.252,-0.489 0.254,-0.531 0.26,-0.579L0.052,-0.579C0.057,-0.537 0.06,-0.487 0.06,-0.429L0.06,-0.178C0.06,-0.099 0.077,-0.05 0.117,-0.01C0.155,0.027 0.209,0.046 0.276,0.046C0.361,0.046 0.418,0.022 0.484,-0.04C0.483,-0.033 0.483,-0.018 0.483,-0.013L0.483,0.03L0.682,0.03C0.676,-0.01 0.674,-0.051 0.674,-0.12L0.674,-0.429C0.674,-0.49 0.676,-0.532 0.682,-0.579L0.475,-0.579Z" style="fill:rgb(5,57,255);fill-rule:nonzero;"/>
            </g>
            <g transform="matrix(200,0,0,200,1208.94,1220.59)">
                <path d="M0.254,-0.023L0.233,0.02C0.218,0.05 0.19,0.067 0.152,0.067C0.126,0.067 0.107,0.062 0.074,0.045L0.052,0.204C0.107,0.216 0.145,0.221 0.189,0.221C0.303,0.221 0.375,0.178 0.415,0.084L0.644,-0.445C0.679,-0.527 0.679,-0.527 0.704,-0.579L0.487,-0.579C0.481,-0.544 0.472,-0.515 0.444,-0.446L0.355,-0.219L0.263,-0.45C0.242,-0.504 0.229,-0.547 0.224,-0.579L0.007,-0.579C0.02,-0.554 0.024,-0.545 0.067,-0.445L0.254,-0.023Z" style="fill:rgb(5,57,255);fill-rule:nonzero;"/>
            </g>
            <g transform="matrix(200,0,0,200,1348.94,1220.59)">
                <path d="M0.249,0.031L0.249,-0.001C0.249,-0.006 0.248,-0.019 0.248,-0.022C0.313,0.032 0.362,0.049 0.445,0.049C0.533,0.049 0.601,0.023 0.653,-0.029C0.711,-0.09 0.742,-0.176 0.742,-0.283C0.742,-0.481 0.636,-0.597 0.454,-0.597C0.371,-0.597 0.307,-0.574 0.248,-0.522C0.249,-0.536 0.249,-0.545 0.249,-0.56L0.249,-0.644C0.249,-0.717 0.251,-0.753 0.256,-0.801L0.053,-0.801C0.059,-0.753 0.061,-0.717 0.061,-0.644L0.061,-0.126C0.061,-0.059 0.059,-0.017 0.053,0.031L0.249,0.031ZM0.548,-0.281C0.548,-0.175 0.49,-0.104 0.403,-0.104C0.317,-0.104 0.251,-0.179 0.251,-0.278C0.251,-0.375 0.316,-0.445 0.407,-0.445C0.495,-0.445 0.548,-0.383 0.548,-0.281Z" style="fill:rgb(5,57,255);fill-rule:nonzero;"/>
            </g>
            <g transform="matrix(200,0,0,200,1496.74,1220.59)">
                <path d="M0.475,-0.579C0.481,-0.527 0.483,-0.485 0.483,-0.429L0.483,-0.224C0.444,-0.16 0.388,-0.121 0.333,-0.121C0.304,-0.121 0.282,-0.131 0.268,-0.149C0.256,-0.165 0.252,-0.183 0.252,-0.224L0.252,-0.429C0.252,-0.489 0.254,-0.531 0.26,-0.579L0.052,-0.579C0.057,-0.537 0.06,-0.487 0.06,-0.429L0.06,-0.178C0.06,-0.099 0.077,-0.05 0.117,-0.01C0.155,0.027 0.209,0.046 0.276,0.046C0.361,0.046 0.418,0.022 0.484,-0.04C0.483,-0.033 0.483,-0.018 0.483,-0.013L0.483,0.03L0.682,0.03C0.676,-0.01 0.674,-0.051 0.674,-0.12L0.674,-0.429C0.674,-0.49 0.676,-0.532 0.682,-0.579L0.475,-0.579Z" style="fill:rgb(5,57,255);fill-rule:nonzero;"/>
            </g>
            <g transform="matrix(200,0,0,200,1645.54,1220.59)">
                <path d="M0.056,-0.801L0.056,-0.651L0.259,-0.651L0.259,-0.801L0.056,-0.801ZM0.053,-0.579C0.059,-0.534 0.061,-0.493 0.061,-0.428L0.061,-0.12C0.061,-0.056 0.059,-0.018 0.053,0.031L0.262,0.031C0.257,-0.012 0.254,-0.066 0.254,-0.12L0.254,-0.428C0.254,-0.498 0.256,-0.538 0.262,-0.579L0.053,-0.579Z" style="fill:rgb(5,57,255);fill-rule:nonzero;"/>
            </g>
            <g transform="matrix(200,0,0,200,1710.54,1220.59)">
                <path d="M0.053,-0.801C0.059,-0.763 0.061,-0.721 0.061,-0.65L0.061,-0.12C0.061,-0.048 0.059,-0.014 0.053,0.031L0.262,0.031C0.256,-0.022 0.254,-0.06 0.254,-0.12L0.254,-0.65C0.254,-0.718 0.256,-0.759 0.262,-0.801L0.053,-0.801Z" style="fill:rgb(5,57,255);fill-rule:nonzero;"/>
            </g>
            <g transform="matrix(200,0,0,200,1767.34,1220.59)">
                <path d="M0.52,0.031L0.717,0.031C0.711,-0.018 0.709,-0.059 0.709,-0.126L0.709,-0.644C0.709,-0.711 0.711,-0.759 0.717,-0.801L0.512,-0.801C0.518,-0.757 0.52,-0.714 0.52,-0.644L0.52,-0.561C0.52,-0.547 0.52,-0.538 0.521,-0.523C0.455,-0.576 0.397,-0.597 0.316,-0.597C0.234,-0.597 0.164,-0.57 0.113,-0.519C0.057,-0.462 0.027,-0.379 0.027,-0.275C0.027,-0.073 0.137,0.049 0.319,0.049C0.403,0.049 0.454,0.031 0.521,-0.023C0.52,-0.014 0.52,-0.007 0.52,-0.001L0.52,0.031ZM0.363,-0.444C0.454,-0.444 0.518,-0.374 0.518,-0.277C0.518,-0.178 0.453,-0.104 0.364,-0.104C0.327,-0.104 0.291,-0.118 0.267,-0.142C0.237,-0.171 0.221,-0.217 0.221,-0.274C0.221,-0.379 0.276,-0.444 0.363,-0.444Z" style="fill:rgb(5,57,255);fill-rule:nonzero;"/>
            </g>
            <g transform="matrix(200,0,0,200,1921.14,1220.59)">
                <path d="M0.249,0.031L0.249,-0.001C0.249,-0.006 0.248,-0.019 0.248,-0.022C0.313,0.032 0.362,0.049 0.445,0.049C0.533,0.049 0.601,0.023 0.653,-0.029C0.711,-0.09 0.742,-0.176 0.742,-0.283C0.742,-0.481 0.636,-0.597 0.454,-0.597C0.371,-0.597 0.307,-0.574 0.248,-0.522C0.249,-0.536 0.249,-0.545 0.249,-0.56L0.249,-0.644C0.249,-0.717 0.251,-0.753 0.256,-0.801L0.053,-0.801C0.059,-0.753 0.061,-0.717 0.061,-0.644L0.061,-0.126C0.061,-0.059 0.059,-0.017 0.053,0.031L0.249,0.031ZM0.548,-0.281C0.548,-0.175 0.49,-0.104 0.403,-0.104C0.317,-0.104 0.251,-0.179 0.251,-0.278C0.251,-0.375 0.316,-0.445 0.407,-0.445C0.495,-0.445 0.548,-0.383 0.548,-0.281Z" style="fill:rgb(5,57,255);fill-rule:nonzero;"/>
            </g>
            <g transform="matrix(200,0,0,200,2072.94,1220.59)">
                <path d="M0.356,0.054C0.555,0.054 0.687,-0.078 0.687,-0.277C0.687,-0.475 0.559,-0.602 0.357,-0.602C0.155,-0.602 0.027,-0.475 0.027,-0.275C0.027,-0.074 0.155,0.054 0.356,0.054ZM0.358,-0.452C0.443,-0.452 0.494,-0.386 0.494,-0.274C0.494,-0.163 0.444,-0.098 0.357,-0.098C0.27,-0.098 0.218,-0.165 0.218,-0.276C0.218,-0.386 0.27,-0.452 0.358,-0.452Z" style="fill:rgb(5,57,255);fill-rule:nonzero;"/>
            </g>
            <g transform="matrix(200,0,0,200,2213.94,1220.59)">
                <path d="M0.356,0.054C0.555,0.054 0.687,-0.078 0.687,-0.277C0.687,-0.475 0.559,-0.602 0.357,-0.602C0.155,-0.602 0.027,-0.475 0.027,-0.275C0.027,-0.074 0.155,0.054 0.356,0.054ZM0.358,-0.452C0.443,-0.452 0.494,-0.386 0.494,-0.274C0.494,-0.163 0.444,-0.098 0.357,-0.098C0.27,-0.098 0.218,-0.165 0.218,-0.276C0.218,-0.386 0.27,-0.452 0.358,-0.452Z" style="fill:rgb(5,57,255);fill-rule:nonzero;"/>
            </g>
            <g transform="matrix(200,0,0,200,2350.94,1220.59)">
                <path d="M0.053,-0.801C0.058,-0.764 0.061,-0.718 0.061,-0.65L0.061,-0.12C0.061,-0.054 0.059,-0.014 0.053,0.031L0.257,0.031C0.25,-0.009 0.249,-0.033 0.249,-0.115L0.249,-0.155L0.324,-0.227L0.4,-0.103C0.429,-0.055 0.451,-0.011 0.466,0.031L0.721,0.031C0.693,-0.003 0.689,-0.009 0.628,-0.097L0.461,-0.341L0.606,-0.481C0.66,-0.534 0.672,-0.545 0.711,-0.579L0.445,-0.579C0.426,-0.55 0.404,-0.524 0.358,-0.478L0.248,-0.369L0.248,-0.65C0.248,-0.717 0.25,-0.76 0.256,-0.801L0.053,-0.801Z" style="fill:rgb(5,57,255);fill-rule:nonzero;"/>
            </g>
        </g>
    </g>
</svg>
