<?xml version="1.0" encoding="UTF-8" standalone="no"?>
<!DOCTYPE svg PUBLIC "-//W3C//DTD SVG 1.1//EN" "http://www.w3.org/Graphics/SVG/1.1/DTD/svg11.dtd">
<svg width="100%" height="100%" viewBox="0 0 2330 420" version="1.1" xmlns="http://www.w3.org/2000/svg" xmlns:xlink="http://www.w3.org/1999/xlink" xml:space="preserve" xmlns:serif="http://www.serif.com/" style="fill-rule:evenodd;clip-rule:evenodd;stroke-linejoin:round;stroke-miterlimit:2;">
    <g transform="matrix(1,0,0,1,-534.963,-883.2)">
        <g transform="matrix(1,0,0,1,324.48,-42.1215)">
            <text x="916.342px" y="1220.59px" style="font-family:'Nexa-Bold', 'Nexa';font-weight:650;font-size:266.667px;fill:rgb(78,184,72);">b</text>
            <text x="1069.68px" y="1220.59px" style="font-family:'Nexa-Bold', 'Nexa';font-weight:650;font-size:266.667px;fill:rgb(78,184,72);">u<tspan x="1224.08px 1368.34px " y="1220.59px 1220.59px ">yb</tspan></text>
            <text x="1529.68px" y="1220.59px" style="font-family:'Nexa-Bold', 'Nexa';font-weight:650;font-size:266.667px;fill:rgb(78,184,72);">o</text>
            <text x="1680.08px" y="1220.59px" style="font-family:'Nexa-Bold', 'Nexa';font-weight:650;font-size:266.667px;fill:rgb(78,184,72);">o</text>
            <text x="1827.81px" y="1220.59px" style="font-family:'Nexa-Bold', 'Nexa';font-weight:650;font-size:266.667px;fill:rgb(78,184,72);">k</text>
            <text x="1959.81px" y="1220.59px" style="font-family:'Nexa-Bold', 'Nexa';font-weight:650;font-size:266.667px;fill:rgb(78,184,72);">b</text>
            <text x="2113.14px" y="1220.59px" style="font-family:'Nexa-Bold', 'Nexa';font-weight:650;font-size:266.667px;fill:rgb(78,184,72);">u<tspan x="2275.54px " y="1220.59px ">i</tspan></text>
            <text x="2340.08px" y="1220.59px" style="font-family:'Nexa-Bold', 'Nexa';font-weight:650;font-size:266.667px;fill:rgb(78,184,72);">l</text>
            <text x="2392.88px" y="1220.59px" style="font-family:'Nexa-Bold', 'Nexa';font-weight:650;font-size:266.667px;fill:rgb(78,184,72);">d</text>
        </g>
        <g>
            <path d="M998.47,910.8L826.27,910.8L826.27,883.2L998.47,883.2C1069.27,883.2 1136.47,918 1136.47,997.8C1136.47,1041 1110.07,1074.6 1068.07,1087.8C1120.87,1102.2 1150.87,1144.8 1150.87,1193.4C1150.87,1279.8 1070.47,1303.2 998.47,1303.2L826.27,1303.2L826.27,1272L998.47,1272C1051.27,1272 1119.07,1259.4 1119.07,1192.8C1118.47,1127.4 1059.07,1104 1002.67,1104L858.67,1104L858.67,1073.4L1002.67,1073.4C1053.07,1073.4 1105.87,1057.8 1105.87,997.8C1105.87,936.6 1050.67,910.8 998.47,910.8Z" style="fill:rgb(78,184,72);fill-rule:nonzero;"/>
            <g transform="matrix(1,0,0,1,-143.614,0)">
                <path d="M998.47,910.8L826.27,910.8L826.27,883.2L998.47,883.2C1069.27,883.2 1136.47,918 1136.47,997.8C1136.47,1041 1110.07,1074.6 1068.07,1087.8C1120.87,1102.2 1150.87,1144.8 1150.87,1193.4C1150.87,1279.8 1070.47,1303.2 998.47,1303.2L826.27,1303.2L826.27,1272L998.47,1272C1051.27,1272 1119.07,1259.4 1119.07,1192.8C1118.47,1127.4 1059.07,1104 1002.67,1104L858.67,1104L858.67,1073.4L1002.67,1073.4C1053.07,1073.4 1105.87,1057.8 1105.87,997.8C1105.87,936.6 1050.67,910.8 998.47,910.8Z" style="fill:rgb(78,184,72);fill-rule:nonzero;"/>
            </g>
            <g transform="matrix(1,0,0,1,-291.307,0)">
                <path d="M998.47,910.8L826.27,910.8L826.27,883.2L998.47,883.2C1069.27,883.2 1136.47,918 1136.47,997.8C1136.47,1041 1110.07,1074.6 1068.07,1087.8C1120.87,1102.2 1150.87,1144.8 1150.87,1193.4C1150.87,1279.8 1070.47,1303.2 998.47,1303.2L826.27,1303.2L826.27,1272L998.47,1272C1051.27,1272 1119.07,1259.4 1119.07,1192.8C1118.47,1127.4 1059.07,1104 1002.67,1104L858.67,1104L858.67,1073.4L1002.67,1073.4C1053.07,1073.4 1105.87,1057.8 1105.87,997.8C1105.87,936.6 1050.67,910.8 998.47,910.8Z" style="fill:rgb(78,184,72);fill-rule:nonzero;"/>
            </g>
        </g>
    </g>
</svg>
