<?xml version="1.0" standalone="no"?>
<!DOCTYPE svg PUBLIC "-//W3C//DTD SVG 20010904//EN"
 "http://www.w3.org/TR/2001/REC-SVG-20010904/DTD/svg10.dtd">
<svg version="1.0" xmlns="http://www.w3.org/2000/svg"
 width="1232.000000pt" height="1232.000000pt" viewBox="0 0 1232.000000 1232.000000"
 preserveAspectRatio="xMidYMid meet">
<metadata>
Created by potrace 1.14, written by Peter Selinger 2001-2017
</metadata>
<g transform="translate(0.000000,1232.000000) scale(0.100000,-0.100000)"
fill="#000000" stroke="none">
<path d="M0 10085 l0 -275 28 0 c15 0 835 -2 1822 -4 1692 -3 1866 -5 1965
-20 22 -3 58 -8 80 -11 22 -4 49 -8 60 -10 11 -1 38 -6 60 -10 32 -5 131 -30
280 -68 117 -31 433 -166 443 -189 2 -5 10 -8 18 -8 8 0 20 -5 27 -10 7 -6 41
-29 77 -51 36 -23 67 -45 68 -50 2 -5 10 -9 18 -9 8 0 14 -4 14 -8 0 -4 15
-16 33 -27 41 -24 257 -241 282 -283 11 -18 23 -32 27 -32 4 0 8 -6 8 -14 0
-8 4 -16 8 -18 10 -4 78 -116 108 -178 23 -46 70 -151 72 -160 0 -3 3 -12 6
-20 12 -38 27 -89 31 -106 8 -33 34 -158 40 -194 11 -58 14 -421 4 -485 -5
-33 -11 -71 -13 -85 -13 -88 -77 -294 -97 -314 -5 -6 -9 -16 -9 -23 0 -11 -90
-171 -112 -198 -153 -191 -305 -313 -524 -421 -71 -35 -138 -64 -147 -64 -9 0
-17 -4 -17 -10 0 -5 -3 -9 -7 -8 -5 1 -35 -7 -68 -17 -33 -10 -64 -20 -70 -21
-5 -2 -44 -13 -85 -24 -41 -12 -84 -23 -95 -24 -11 -2 -33 -6 -50 -10 -16 -3
-41 -8 -55 -11 -14 -3 -36 -7 -50 -10 -28 -5 -77 -11 -165 -21 -33 -3 -69 -8
-80 -10 -80 -17 -905 -25 -905 -9 0 7 -3 7 -8 0 -10 -15 -1264 -15 -1274 0 -5
6 -8 6 -8 0 0 -7 -186 -10 -545 -10 l-545 0 0 -305 0 -306 1478 0 c1464 -1
1734 -5 1857 -27 17 -3 53 -8 80 -12 59 -7 150 -22 185 -30 14 -3 36 -7 50
-10 14 -2 61 -13 105 -25 44 -11 88 -23 98 -25 31 -7 229 -77 277 -97 216 -93
437 -230 557 -345 13 -12 23 -20 23 -18 0 5 127 -131 153 -164 87 -109 155
-222 211 -353 32 -77 62 -164 71 -208 2 -8 4 -15 5 -15 2 0 13 -51 24 -115 3
-19 8 -48 11 -65 12 -67 18 -166 18 -280 0 -100 -8 -230 -13 -230 -1 0 -3 -9
-5 -20 -6 -42 -15 -91 -18 -105 -28 -118 -49 -174 -109 -297 -32 -68 -63 -123
-69 -123 -5 0 -9 -6 -9 -14 0 -8 -3 -16 -7 -18 -5 -1 -20 -21 -35 -43 -67 -98
-284 -292 -378 -339 -8 -4 -33 -18 -55 -31 -65 -38 -175 -90 -265 -124 -47
-18 -94 -37 -105 -42 -20 -8 -161 -51 -180 -54 -5 -1 -12 -3 -15 -4 -3 -1 -16
-5 -30 -7 -14 -3 -61 -13 -105 -24 -44 -10 -97 -21 -117 -24 -21 -3 -55 -9
-75 -12 -21 -3 -49 -7 -63 -10 -14 -2 -47 -6 -75 -9 -27 -3 -59 -7 -70 -9 -11
-2 -63 -7 -115 -11 -52 -4 -113 -9 -135 -12 -22 -3 -886 -6 -1920 -7 l-1880
-2 -3 -312 -2 -312 4842 3 c2664 2 4857 6 4873 9 17 4 66 9 110 13 138 12 149
14 191 20 22 3 56 8 75 10 19 2 34 4 34 5 0 1 11 3 25 5 68 9 205 34 315 59
82 19 115 27 212 56 40 12 76 22 80 23 21 1 318 113 361 137 9 5 35 17 57 26
22 10 43 23 47 28 4 6 8 8 8 4 0 -15 311 174 318 193 2 5 10 9 18 9 8 0 14 4
14 8 0 5 20 23 44 40 76 54 252 235 311 317 11 16 25 33 31 39 20 20 135 217
164 279 52 115 97 242 120 337 6 25 13 54 16 65 5 22 10 48 29 165 20 117 26
467 11 585 -4 33 -10 76 -12 95 -3 28 -35 185 -48 235 -35 133 -79 251 -148
394 -57 119 -163 292 -217 357 -14 17 -44 52 -66 79 -80 98 -218 228 -339 319
-81 61 -253 172 -285 183 -9 4 -29 16 -46 27 -16 12 -32 20 -35 20 -3 -1 -39
14 -80 33 -83 38 -186 76 -270 101 -30 8 -64 21 -75 29 -19 13 -19 13 2 13 12
0 35 5 50 11 15 6 39 16 53 21 14 6 33 14 42 19 10 5 25 9 33 9 8 0 15 4 15 8
0 4 9 8 21 9 11 1 26 7 33 12 7 6 45 27 85 47 103 51 289 170 321 204 3 3 27
23 54 45 92 74 209 200 294 315 26 36 50 67 54 68 5 2 8 8 8 13 0 5 19 42 43
81 23 39 42 74 42 77 1 3 15 37 33 75 68 143 127 358 149 536 9 73 8 435 -1
520 -29 268 -110 542 -222 755 -58 111 -69 130 -74 135 -3 3 -29 41 -59 85
-100 148 -281 339 -416 440 -22 16 -41 33 -43 37 -2 4 -9 8 -15 8 -7 0 -24 11
-39 25 -15 14 -31 25 -36 25 -4 0 -17 8 -28 18 -10 10 -26 21 -34 25 -8 4 -37
21 -65 38 -78 47 -308 158 -317 153 -4 -3 -8 0 -8 5 0 6 -7 11 -15 11 -8 0
-23 5 -33 10 -15 9 -205 79 -217 80 -3 0 -10 3 -17 5 -13 4 -159 43 -190 51
-39 9 -64 14 -88 19 -14 3 -36 7 -50 10 -14 3 -38 8 -55 10 -16 3 -37 8 -45
10 -8 2 -40 7 -70 11 -30 4 -66 8 -80 10 -14 2 -52 7 -85 9 -33 3 -76 9 -95
12 -19 4 -2192 9 -4827 10 l-4793 3 0 -275z m6685 -289 c17 -3 55 -7 86 -10
70 -7 299 -48 339 -61 10 -3 29 -8 42 -11 39 -9 53 -12 53 -14 0 -1 7 -3 15
-5 22 -4 191 -62 234 -80 20 -9 38 -15 41 -16 9 0 220 -109 260 -134 22 -13
48 -27 58 -31 9 -3 17 -10 17 -15 0 -5 6 -9 14 -9 8 0 16 -3 18 -7 2 -5 37
-33 78 -65 86 -65 173 -147 246 -233 52 -61 154 -207 154 -221 0 -4 6 -15 13
-23 11 -14 28 -50 87 -186 19 -42 58 -174 66 -222 2 -13 7 -35 10 -50 37 -183
37 -477 -1 -668 -59 -297 -201 -544 -420 -727 -108 -91 -161 -126 -292 -192
-179 -90 -342 -144 -568 -190 -66 -14 -142 -27 -170 -30 -27 -4 -66 -9 -85
-11 -81 -11 -141 -16 -240 -20 -58 -3 -120 -7 -137 -8 -18 -2 -33 1 -33 6 0 4
-6 5 -12 0 -20 -12 -568 -10 -568 2 0 7 -3 7 -8 0 -7 -11 -543 -15 -541 -5 0
3 30 28 66 55 112 85 237 212 356 365 51 64 195 324 203 365 1 6 8 24 15 40 7
17 13 33 14 38 2 4 4 9 5 12 1 3 3 9 4 14 0 5 4 13 9 17 4 4 7 15 7 25 0 10 5
30 11 46 7 15 13 37 14 49 2 11 8 38 14 60 10 38 20 100 26 159 2 17 7 53 11
80 8 62 9 281 0 395 -6 83 -10 115 -22 175 -3 17 -6 37 -6 45 -2 56 -72 309
-117 422 -103 259 -239 465 -436 664 -105 105 -129 127 -203 183 -18 13 -32
28 -32 32 0 8 1253 3 1305 -5z m2870 0 c22 -2 64 -8 94 -11 29 -4 63 -8 75
-10 11 -2 37 -6 56 -9 19 -3 46 -8 60 -11 30 -6 133 -28 140 -30 3 -1 19 -5
35 -9 470 -120 862 -363 1098 -681 20 -27 41 -55 47 -62 5 -7 10 -17 10 -23 0
-5 5 -10 10 -10 6 0 10 -5 10 -11 0 -6 9 -24 21 -40 11 -16 22 -35 23 -42 1
-7 9 -23 19 -37 9 -13 17 -30 17 -38 0 -7 7 -23 15 -35 14 -21 52 -122 60
-157 1 -8 10 -40 19 -70 38 -134 54 -291 49 -485 -3 -139 -9 -230 -14 -230 -2
0 -5 -17 -12 -68 -2 -15 -7 -30 -10 -34 -4 -3 -7 -16 -7 -27 -1 -38 -90 -281
-109 -296 -3 -3 -17 -27 -31 -53 -33 -64 -144 -203 -215 -269 -112 -105 -287
-214 -460 -289 -29 -12 -80 -31 -83 -30 -1 1 -15 -5 -30 -13 -50 -26 -301 -88
-447 -111 -11 -2 -33 -6 -50 -9 -16 -2 -61 -8 -100 -12 -38 -3 -79 -8 -90 -10
-88 -18 -1165 -26 -1165 -9 0 7 -3 7 -8 0 -8 -12 -192 -14 -192 -3 0 5 5 8 10
8 6 0 19 8 29 18 10 9 36 31 57 47 78 61 146 127 248 240 59 65 189 264 235
359 53 111 83 186 73 186 -4 0 -2 4 4 8 9 6 48 126 59 182 3 14 9 48 15 75 5
28 12 64 15 80 29 167 24 549 -10 720 -9 48 -36 181 -39 190 -5 19 -37 130
-42 145 -3 8 -5 16 -4 18 0 1 -7 16 -16 33 -8 17 -17 41 -20 52 -4 26 -140
301 -157 320 -7 7 -36 48 -66 92 -83 121 -211 263 -331 365 -25 21 -58 50 -75
64 -16 14 -36 26 -43 26 -7 0 -10 5 -7 10 7 11 1150 7 1230 -4z m-2845 -3860
c204 -12 354 -31 530 -68 30 -6 60 -12 66 -14 6 -1 64 -16 127 -34 64 -18 119
-31 123 -30 4 1 10 -2 13 -7 3 -4 31 -16 61 -27 217 -74 488 -227 638 -360
104 -93 265 -274 280 -316 3 -8 9 -17 13 -20 14 -10 111 -202 136 -267 29 -78
71 -224 78 -268 2 -16 7 -48 10 -70 3 -22 8 -58 12 -80 15 -89 7 -438 -12
-505 -2 -8 -6 -26 -9 -40 -2 -14 -9 -45 -16 -70 -7 -25 -14 -52 -15 -60 -6
-27 -62 -164 -86 -210 -75 -148 -235 -337 -364 -431 -33 -24 -61 -47 -63 -51
-2 -5 -10 -8 -18 -8 -8 0 -14 -4 -14 -10 0 -5 -5 -10 -12 -10 -6 0 -19 -7 -28
-15 -38 -34 -354 -179 -435 -199 -5 -2 -17 -6 -25 -9 -22 -9 -152 -46 -175
-50 -11 -2 -40 -9 -64 -16 -23 -7 -45 -10 -48 -7 -3 3 -13 1 -22 -3 -9 -5 -34
-12 -56 -16 -22 -4 -49 -9 -60 -11 -77 -13 -210 -32 -270 -38 -255 -26 -264
-27 -774 -30 -374 -2 -460 0 -446 10 36 26 150 131 194 178 95 101 139 156
203 256 47 73 143 245 146 260 0 3 5 16 10 30 58 154 103 311 117 405 3 23 8
52 10 65 3 14 8 50 11 80 3 30 7 71 10 90 9 83 3 363 -11 470 -12 95 -14 104
-19 130 -3 14 -7 36 -10 50 -3 20 -21 91 -40 165 -17 70 -75 221 -117 312 -22
45 -39 87 -39 92 0 6 -4 11 -9 11 -5 0 -15 14 -22 32 -33 80 -176 278 -286
397 -24 25 -43 50 -43 55 0 5 -2 7 -5 4 -3 -2 -29 18 -58 46 -77 74 -138 126
-147 126 -4 0 -14 7 -21 16 -8 9 -31 27 -51 40 -21 14 -38 28 -38 32 0 8 991
7 1140 -2z m2805 5 c0 -1 45 -4 100 -7 55 -3 114 -7 130 -9 17 -2 53 -7 80
-10 28 -4 64 -8 80 -10 17 -1 30 -4 30 -5 0 -1 14 -3 30 -5 17 -2 46 -7 65
-11 19 -4 44 -8 56 -10 51 -6 270 -67 377 -104 111 -38 290 -113 312 -131 6
-4 36 -21 68 -38 213 -112 439 -315 575 -517 79 -118 179 -336 197 -432 2 -9
4 -17 5 -17 2 0 6 -16 14 -55 3 -14 9 -38 13 -55 4 -16 7 -37 8 -45 1 -8 4
-35 8 -60 9 -52 19 -184 19 -250 1 -54 -11 -229 -17 -250 -2 -8 -7 -33 -10
-55 -3 -22 -12 -65 -21 -95 -8 -30 -17 -62 -19 -70 -2 -8 -4 -15 -5 -15 -1 0
-3 -10 -6 -23 -2 -13 -15 -47 -29 -76 -14 -29 -25 -56 -25 -60 0 -5 -9 -21
-21 -37 -11 -16 -18 -29 -15 -29 7 0 -26 -50 -96 -148 -46 -63 -167 -189 -235
-244 -97 -77 -274 -177 -443 -251 -33 -14 -183 -67 -205 -72 -5 -1 -17 -5 -25
-8 -8 -4 -26 -9 -40 -12 -14 -2 -61 -14 -105 -25 -92 -23 -99 -24 -220 -45
-164 -29 -188 -32 -380 -50 -33 -3 -85 -8 -115 -11 -30 -3 -250 -7 -489 -8
l-433 -3 58 51 c109 96 202 195 297 316 27 34 108 162 119 188 7 15 17 34 23
42 14 19 83 174 91 205 1 6 8 24 15 40 6 17 13 35 15 40 23 83 56 217 59 240
3 17 7 41 10 55 34 169 38 530 9 715 -3 17 -7 46 -9 65 -2 19 -20 96 -40 170
-20 74 -39 147 -42 163 -3 15 -9 27 -14 27 -5 0 -8 3 -7 8 1 4 -4 23 -11 42
-8 19 -15 37 -16 40 -11 30 -24 58 -62 135 -24 50 -49 99 -56 110 -43 71 -141
221 -146 225 -4 3 -14 15 -22 27 -29 42 -104 126 -189 209 -84 82 -255 224
-270 224 -4 0 -10 6 -13 13 -4 10 94 12 492 11 273 -1 496 -3 496 -3z"/>
</g>
</svg>
